<svg id="Layer_1" data-name="Layer 1" xmlns="http://www.w3.org/2000/svg" viewBox="0 0 1872 1116"><defs><style>.cls-1{fill:#006934;}.cls-2{fill:#231815;}.cls-3{fill:#dcdddd;}</style></defs><path class="cls-1" d="M100.91,557.7c23.29,0,61.63-1.82,82.63-5.47a64.05,64.05,0,0,0-1.82,15.06,59.33,59.33,0,0,0,1.82,15.52c-29.67-.91-48.85-2.74-98.6-2.74-40.17,0-51.58,1.37-76.22,2.74,3.64-58.43,4.11-106.81,4.11-166.6,0-62.09-2.75-129.64-3.66-149.27,7.3,1.37,13.23,2.74,24.66,2.74a161.65,161.65,0,0,0,28.75-2.74c-4.11,116.86-4.11,147.9-4.11,289.85C80.38,557.7,89.5,557.7,100.91,557.7Z"/><path class="cls-1" d="M241.05,311.68A24.88,24.88,0,1,1,266.16,287C266.16,300.72,254.74,311.68,241.05,311.68Zm-24.18,50.21c6.38,1.82,11.86,2.73,22.36,2.73s16.89-.91,23.73-2.73c-1.37,25.1-2.74,45.64-2.74,120,0,21,.46,28.76,3.2,100.88-5.93-1.82-10.51-2.74-22.37-2.74-12.78,0-16.89.92-23.73,2.74,1.81-34.69,3.19-80.34,3.19-115.94C220.51,414.84,218.69,385.62,216.87,361.89Z"/><path class="cls-1" d="M324.58,360.06c8.22,1.37,14.15,2.74,22.82,2.74s14.61-1.37,22.37-2.74c-.45,6.85-1.82,37-2.28,43.36,11.86-21.45,37-44.73,80.33-44.73,74.86,0,78.52,53.4,78.52,79.42,0,4.57-1.83,81.71-1.83,97.23,0,8.67.46,40.62,1.37,47.47-6.39-1.82-11.87-2.74-23.28-2.74-11.87,0-17.35.92-24.19,2.74,4.11-48.84,4.11-99,4.11-107.27,0-45.65-2.29-89-52.95-89-24.2,0-43.37,11-54.32,31.5C367,434,367,485.58,367,507c0,35.61,2.28,58.89,3.64,75.78a107.15,107.15,0,0,0-24.19-2.74,110.37,110.37,0,0,0-24.18,2.74c2.27-27.85,4.55-57.06,4.55-125.53C326.86,427.16,325.5,392,324.58,360.06Z"/><path class="cls-1" d="M1023,540.81c7.31,11.42,11,17.35,27.85,42-12.78-2.74-25.11-2.74-33.32-2.74-8.68,0-19.18.46-27.86,2.74-11.41-26.93-62.52-114.12-74.39-133.74-23.73,35.14-54.32,85.81-79.88,133.74A99.61,99.61,0,0,0,813,580.07c-6.85,0-14.6.46-21,2.74,24.19-31.5,97.22-131,110-153.83-21.46-35.6-77.59-123.69-103.61-162,9.58,2.74,19.62,2.74,29.21,2.74,7.76,0,22.82-.91,31.5-2.74,24.64,47,60.71,111.83,70.29,122.33,15.52-21.91,59.34-87.64,73.49-122.33,4.56,1.37,9.59,2.74,23.73,2.74,11,0,15.52-1.37,20.09-2.74-22.37,26-74.86,97.68-104.54,143.79C964.53,446.78,1000.14,504.76,1023,540.81Z"/><path class="cls-1" d="M1195.5,589.65c-42.92,0-67.1-23.73-74.41-42.45,0,71.67-.45,113.2,2.29,155.2-6.84-1.83-12.79-2.74-23.74-2.74-11.41,0-17.35.91-24.65,2.74,3.65-59.34,5-119.14,5-178.48,0-41.53-.91-97.67-2.28-163.86a103.21,103.21,0,0,0,22.36,2.74,106.89,106.89,0,0,0,22.37-2.74c-1.82,25.1-1.82,31.95-1.82,41.54,7.3-11.87,26.93-43.82,77.59-43.82,45.65,0,101.34,33.32,101.34,114.57C1299.57,544.47,1255.29,589.65,1195.5,589.65Zm-56.61-185.31c-9.13,11.41-18.71,27.84-18.71,73,0,40.16,9.13,55.23,18.71,66.64,11.87,14.15,27.39,22.37,48.39,22.37,65.27,0,65.27-77.14,65.27-91.75,0-68.92-32.86-94-62.53-94C1165.37,380.6,1149.39,391.1,1138.89,404.34Z"/><path class="cls-1" d="M1370.77,471.89c0,12.78,0,38.8,12.32,59.8,21,34.23,50.67,35.6,63.91,35.6,44.74,0,65.73-27.39,72.58-37l5.48,1.37c-2.74,12.78-2.74,20.08-3.2,27.39-20.08,19.16-47.93,29.66-84.91,29.66-69.37,0-111.82-43.82-111.82-114.11,0-63,34.69-115.94,109.55-115.94,101.79,0,100.42,88.55,100,113.2ZM1489,452.72c0-15.06,0-75.77-54.78-75.77-39.71,0-58.88,30.12-63,75.77Z"/><path class="cls-1" d="M1700.79,403.42c-5.93-3.19-11.41-5.93-23.73-5.93a50.49,50.49,0,0,0-44.73,26c-6.39,14.16-7.31,24.2-7.31,80.34,0,4.57,0,20.08.46,29.67,1.83,32,1.83,35.15,2.28,49.3-6.84-1.82-12.78-2.74-24.65-2.74-10.95,0-16,.92-22.81,2.74,3.19-29.67,5-45.19,5-116.4,0-51.57-1.82-76.68-3.65-106.35,6.84,1.83,13.24,2.74,23.27,2.74a85.56,85.56,0,0,0,23.29-2.74,341.1,341.1,0,0,0-3.66,51.58c7.77-18.26,29.22-57.52,82.63-52.95a106.28,106.28,0,0,0-4.11,29.67,88,88,0,0,0,.9,12.78Z"/><path class="cls-1" d="M1754.18,386.07c-14.6,0-17.33.46-36.5,1.84a72.87,72.87,0,0,0,.91-11.42,83.66,83.66,0,0,0-.91-11.41c3.65.46,8.67.91,14.6,1.37s13.24.91,21.9.91c0-16,0-26.93-.9-50.66,12.78-2.29,37.89-16,46.56-21-2.29,37.89-2.29,41.53-3.2,71.66,16.89,0,33.77-.91,49.3-2.28a76.34,76.34,0,0,0-.92,11.41,65.19,65.19,0,0,0,.92,11c-11.41-.46-30.58-1.38-49.3-1.38-1.82,41.55-2.28,83.54-2.28,125.07,0,37,5.93,57.06,32,57.06,4.1,0,15.07-1.82,21-2.74-.92,5-.92,6.85,0,12.78-10.5,5.93-28.3,8.68-38.8,8.68-26,0-41.08-14.16-48.84-27.39-3.65-6.39-6.39-14.15-6.39-42.91,0-7.3,0-15.52.9-58.43Z"/><path class="cls-2" d="M16.62,871.46H27.29v69.4H66.82v9.38H16.62Z"/><path class="cls-2" d="M129.17,915.48c2.22-.29,3.7-1.21,4.46-2.78a8.73,8.73,0,0,0,.64-3.72q0-5-3.51-7.19t-10-2.23q-7.55,0-10.71,4.1a13.53,13.53,0,0,0-2.3,6.73h-9q.27-10.65,6.88-14.81a28.18,28.18,0,0,1,15.35-4.17q10.13,0,16.45,3.86t6.26,12v33.1a4.24,4.24,0,0,0,.62,2.41c.41.61,1.28.91,2.6.91.43,0,.91,0,1.45-.08s1.11-.13,1.72-.24v7.13a25.58,25.58,0,0,1-3.44.8,24.21,24.21,0,0,1-3.21.17q-5,0-7.24-3.54a13.61,13.61,0,0,1-1.67-5.31,24.49,24.49,0,0,1-8.47,6.7,26.14,26.14,0,0,1-12.18,2.84q-8,0-13.06-4.84a16.14,16.14,0,0,1-5.06-12.14q0-8,5-12.37t13.09-5.41Zm-20.32,26.08a11.31,11.31,0,0,0,7.24,2.41,22.11,22.11,0,0,0,9.87-2.36q8-3.92,8-12.8v-7.76a16.45,16.45,0,0,1-4.55,1.88A39.88,39.88,0,0,1,124,924l-5.83.75a22.42,22.42,0,0,0-7.89,2.19,8.53,8.53,0,0,0-4.48,8A7.93,7.93,0,0,0,108.85,941.56Z"/><path class="cls-2" d="M181.44,892.8h9.17V901a25.81,25.81,0,0,1,8.64-7.24,23.12,23.12,0,0,1,10.14-2.2q12.23,0,16.51,8.53,2.37,4.66,2.36,13.36v36.84h-9.81V914a19.53,19.53,0,0,0-1.56-8.47q-2.56-5.37-9.33-5.37a19.15,19.15,0,0,0-5.63.7,14.49,14.49,0,0,0-7,4.72,14.13,14.13,0,0,0-3.14,5.87,39.75,39.75,0,0,0-.72,8.66v30.09h-9.66Z"/><path class="cls-2" d="M296.43,895.11a26.28,26.28,0,0,1,5.56,5.47v-7.24h8.9v52.24q0,10.93-3.21,17.26-6,11.7-22.61,11.7-9.24,0-15.55-4.16t-7.06-13h9.81a11,11,0,0,0,2.78,6q3.26,3.21,10.24,3.22,11,0,14.45-7.83,2-4.62,1.87-16.47a18.92,18.92,0,0,1-6.94,6.54q-4.07,2.15-10.74,2.15a22.9,22.9,0,0,1-16.27-6.62q-7-6.63-7-21.91,0-14.43,7-22.53t17-8.1A20.78,20.78,0,0,1,296.43,895.11Zm1.18,10.35a14,14,0,0,0-11.15-5.15q-10.14,0-13.87,9.55c-1.32,3.39-2,7.85-2,13.35q0,9.7,3.92,14.78a12.65,12.65,0,0,0,10.54,5.07q10.35,0,14.57-9.39A30.5,30.5,0,0,0,302,921.28Q302,910.62,297.61,905.46Z"/><path class="cls-2" d="M357.21,892.8v38.13a16.37,16.37,0,0,0,1.36,7.19q2.51,5.14,9.34,5.15,9.82,0,13.38-9,1.92-4.83,1.93-13.25V892.8h9.65v57.44h-9.12l.11-8.47a19.3,19.3,0,0,1-4.58,5.52,19.86,19.86,0,0,1-13.15,4.51q-12.06,0-16.42-8.21-2.37-4.4-2.37-11.74V892.8Z"/><path class="cls-2" d="M461.39,915.48c2.22-.29,3.7-1.21,4.45-2.78a8.56,8.56,0,0,0,.65-3.72q0-5-3.51-7.19t-10-2.23c-5,0-8.6,1.36-10.71,4.1a13.53,13.53,0,0,0-2.3,6.73h-9q.27-10.65,6.88-14.81a28.18,28.18,0,0,1,15.35-4.17q10.13,0,16.45,3.86t6.26,12v33.1a4.24,4.24,0,0,0,.62,2.41c.41.61,1.28.91,2.6.91.43,0,.91,0,1.45-.08s1.11-.13,1.71-.24v7.13a25.17,25.17,0,0,1-3.43.8,24.27,24.27,0,0,1-3.22.17q-5,0-7.24-3.54a13.79,13.79,0,0,1-1.66-5.31,24.59,24.59,0,0,1-8.47,6.7,26.17,26.17,0,0,1-12.18,2.84q-8,0-13.06-4.84a16.14,16.14,0,0,1-5.06-12.14q0-8,5-12.37T446,917.41Zm-20.32,26.08a11.31,11.31,0,0,0,7.24,2.41,22,22,0,0,0,9.86-2.36q8.06-3.92,8.05-12.8v-7.76a16.58,16.58,0,0,1-4.55,1.88,39.88,39.88,0,0,1-5.46,1.08l-5.83.75a22.42,22.42,0,0,0-7.89,2.19,8.53,8.53,0,0,0-4.48,8A7.93,7.93,0,0,0,441.07,941.56Z"/><path class="cls-2" d="M545.59,895.11a26.28,26.28,0,0,1,5.56,5.47v-7.24h8.9v52.24q0,10.93-3.2,17.26-6,11.7-22.61,11.7-9.25,0-15.56-4.16t-7.06-13h9.82a10.93,10.93,0,0,0,2.77,6q3.25,3.21,10.24,3.22,11,0,14.46-7.83,2-4.62,1.87-16.47a18.94,18.94,0,0,1-6.95,6.54q-4.07,2.15-10.74,2.15a22.88,22.88,0,0,1-16.26-6.62q-7-6.63-7-21.91,0-14.43,7-22.53t17-8.1A20.74,20.74,0,0,1,545.59,895.11Zm1.19,10.35a14,14,0,0,0-11.16-5.15q-10.14,0-13.87,9.55c-1.32,3.39-2,7.85-2,13.35q0,9.7,3.92,14.78a12.63,12.63,0,0,0,10.54,5.07q10.35,0,14.56-9.39a30.33,30.33,0,0,0,2.35-12.39Q551.15,910.62,546.78,905.46Z"/><path class="cls-2" d="M632.2,894.38a21.8,21.8,0,0,1,8.68,7.43A25.76,25.76,0,0,1,644.72,912a66.39,66.39,0,0,1,.86,12.66H603.8q.26,8.76,4.09,14.06t11.87,5.3q7.5,0,12-5a17.14,17.14,0,0,0,3.55-6.74h9.49a20,20,0,0,1-2.49,7,25.32,25.32,0,0,1-4.73,6.36,22.27,22.27,0,0,1-10.8,5.79,32.76,32.76,0,0,1-7.83.86,24,24,0,0,1-18.07-7.8q-7.41-7.82-7.4-21.86,0-13.83,7.46-22.47t19.51-8.64A26,26,0,0,1,632.2,894.38Zm3.45,22.56a25.1,25.1,0,0,0-2.71-10q-3.93-7-13.13-7a14.53,14.53,0,0,0-11.07,4.81,18.23,18.23,0,0,0-4.73,12.2Z"/><path class="cls-2" d="M740.52,924.82a22.14,22.14,0,0,0,3,10.89q5.12,7.83,18,7.83a30.71,30.71,0,0,0,10.54-1.72q9.2-3.33,9.2-11.9c0-4.3-1.3-7.35-3.9-9.18s-6.75-3.34-12.36-4.66l-10.34-2.41q-10.14-2.37-14.34-5.21-7.27-4.94-7.28-14.75,0-10.62,7.15-17.43t20.25-6.81q12.06,0,20.49,6t8.43,19.12h-10q-.78-6.33-3.29-9.71-4.68-6.17-15.89-6.16-9,0-13,4a12.65,12.65,0,0,0-4,9.22,9,9,0,0,0,4.68,8.47q3.06,1.73,13.87,4.3l10.71,2.51q7.74,1.83,12,5,7.27,5.54,7.27,16,0,13.08-9.28,18.72a40.81,40.81,0,0,1-21.57,5.63q-14.34,0-22.44-7.51t-8-20.22Z"/><path class="cls-2" d="M863,894.38a21.77,21.77,0,0,1,8.69,7.43A25.76,25.76,0,0,1,875.49,912a66.59,66.59,0,0,1,.85,12.66H834.56q.27,8.76,4.1,14.06t11.87,5.3q7.5,0,12-5a17.14,17.14,0,0,0,3.55-6.74h9.49a20,20,0,0,1-2.49,7,25.32,25.32,0,0,1-4.73,6.36,22.25,22.25,0,0,1-10.81,5.79,32.61,32.61,0,0,1-7.82.86,24,24,0,0,1-18.07-7.8q-7.41-7.82-7.41-21.86,0-13.83,7.47-22.47t19.5-8.64A25.91,25.91,0,0,1,863,894.38Zm3.46,22.56a25.1,25.1,0,0,0-2.71-10q-3.93-7-13.14-7a14.52,14.52,0,0,0-11.06,4.81,18.18,18.18,0,0,0-4.73,12.2Z"/><path class="cls-2" d="M910.81,892.8H920v9.92q1.13-2.9,5.52-7.05a14.35,14.35,0,0,1,10.14-4.16c.18,0,.48,0,.91.06s1.16.1,2.2.21V902a14.7,14.7,0,0,0-1.58-.21c-.48,0-1-.06-1.58-.06q-7.3,0-11.21,4.7a16.38,16.38,0,0,0-3.92,10.8v33h-9.65Z"/><path class="cls-2" d="M973.83,892.8l15.34,46.77,16-46.77h10.57l-21.63,57.44H983.81L962.62,892.8Z"/><path class="cls-2" d="M1046,871.46h9.82V882.4H1046Zm0,21.61h9.82v57.17H1046Z"/><path class="cls-2" d="M1130.29,895.86q6.09,4.71,7.32,16.25h-9.39a17.27,17.27,0,0,0-3.91-8.82q-3.06-3.51-9.82-3.52-9.23,0-13.19,9a35.69,35.69,0,0,0-2.57,14.41q0,8.63,3.64,14.52t11.48,5.89q6,0,9.52-3.66a20.08,20.08,0,0,0,4.85-10h9.39q-1.6,11.42-8,16.7t-16.46,5.28q-11.26,0-18-8.23t-6.7-20.57q0-15.12,7.35-23.54a23.73,23.73,0,0,1,18.71-8.42Q1124.2,891.14,1130.29,895.86Z"/><path class="cls-2" d="M1204.71,894.38a21.83,21.83,0,0,1,8.69,7.43,25.76,25.76,0,0,1,3.84,10.14,67.45,67.45,0,0,1,.85,12.66h-41.78q.27,8.76,4.1,14.06t11.86,5.3q7.51,0,12-5a17.12,17.12,0,0,0,3.54-6.74h9.49a20,20,0,0,1-2.49,7,25.08,25.08,0,0,1-4.73,6.36,22.27,22.27,0,0,1-10.8,5.79,32.76,32.76,0,0,1-7.83.86,24,24,0,0,1-18.06-7.8q-7.41-7.82-7.41-21.86,0-13.83,7.46-22.47t19.51-8.64A25.94,25.94,0,0,1,1204.71,894.38Zm3.46,22.56a25.09,25.09,0,0,0-2.72-10q-3.93-7-13.13-7a14.51,14.51,0,0,0-11.06,4.81,18.19,18.19,0,0,0-4.74,12.2Z"/><path class="cls-2" d="M1258,932.22a13.72,13.72,0,0,0,2.47,7.4q3.72,4.67,12.91,4.67A19.46,19.46,0,0,0,1283,942a7.73,7.73,0,0,0,4.16-7.22,6.15,6.15,0,0,0-3.33-5.63,39.8,39.8,0,0,0-8.39-2.73l-7.79-1.94q-7.47-1.82-11-4.07-6.33-3.92-6.33-10.84a16.46,16.46,0,0,1,6-13.19q5.94-5,16-5,13.15,0,19,7.62a16.29,16.29,0,0,1,3.53,10.4h-9.11a11,11,0,0,0-2.36-5.92q-3.4-3.78-11.81-3.79-5.6,0-8.48,2.09a6.47,6.47,0,0,0-2.88,5.5q0,3.74,3.79,6a23,23,0,0,0,6.44,2.35l6.51,1.56q10.59,2.52,14.2,4.88c3.76,2.46,5.64,6.35,5.64,11.64a17.61,17.61,0,0,1-5.9,13.24q-5.88,5.58-17.94,5.58-13,0-18.38-5.82a21.85,21.85,0,0,1-5.78-14.4Z"/><path class="cls-2" d="M1382.94,871.46h10.68v69.4h39.52v9.38h-50.2Z"/><path class="cls-2" d="M1464.71,871.46h9.82V882.4h-9.82Zm0,21.61h9.82v57.17h-9.82Z"/><path class="cls-2" d="M1511.08,892.8h9.55V901a32,32,0,0,1,6.22-6.16,18.71,18.71,0,0,1,10.83-3.28q6.87,0,11,3.38a17.84,17.84,0,0,1,4.29,5.69,20.87,20.87,0,0,1,7.56-6.84,21.15,21.15,0,0,1,9.76-2.23q11.6,0,15.77,8.37,2.25,4.5,2.26,12.12v38.24h-10v-39.9c0-3.83-1-6.45-2.87-7.88a11.38,11.38,0,0,0-7-2.15,13.9,13.9,0,0,0-9.79,3.81q-4.11,3.81-4.1,12.71v33.41h-9.82V912.75c0-3.89-.46-6.74-1.39-8.52q-2.2-4-8.21-4a14.2,14.2,0,0,0-10,4.24q-4.47,4.23-4.47,15.34v30.46h-9.66Z"/><path class="cls-2" d="M1624.54,871.46h9.82V882.4h-9.82Zm0,21.61h9.82v57.17h-9.82Z"/><path class="cls-2" d="M1672.85,876.76h9.76v16h9.17v7.89h-9.17v37.48q0,3,2,4a8.69,8.69,0,0,0,3.75.59c.46,0,1,0,1.5,0s1.16-.08,1.88-.18v7.67a21.42,21.42,0,0,1-3.46.7,33.58,33.58,0,0,1-3.89.21q-6.75,0-9.17-3.46a15.35,15.35,0,0,1-2.41-9v-38h-7.78V892.8h7.78Z"/><path class="cls-2" d="M1758.88,894.38a21.83,21.83,0,0,1,8.69,7.43,25.76,25.76,0,0,1,3.84,10.14,67.45,67.45,0,0,1,.85,12.66h-41.78q.27,8.76,4.1,14.06t11.86,5.3q7.51,0,12-5a17.12,17.12,0,0,0,3.54-6.74h9.49a20,20,0,0,1-2.49,7,25.08,25.08,0,0,1-4.73,6.36,22.27,22.27,0,0,1-10.8,5.79,32.76,32.76,0,0,1-7.83.86,24,24,0,0,1-18.06-7.8q-7.41-7.82-7.41-21.86,0-13.83,7.46-22.47t19.51-8.64A25.94,25.94,0,0,1,1758.88,894.38Zm3.46,22.56a25.09,25.09,0,0,0-2.72-10q-3.93-7-13.13-7a14.51,14.51,0,0,0-11.06,4.81,18.19,18.19,0,0,0-4.74,12.2Z"/><path class="cls-2" d="M1838,894.57a26,26,0,0,1,5.83,5.63v-29h9.27v79h-8.68v-8a20.83,20.83,0,0,1-8,7.67,22.73,22.73,0,0,1-10.52,2.36q-9.57,0-16.56-8.07t-7-21.48q0-12.56,6.38-21.75t18.25-9.2A20.26,20.26,0,0,1,1838,894.57Zm-21.55,43.07q3.9,6.23,12.49,6.22a13.13,13.13,0,0,0,11-5.77q4.29-5.76,4.29-16.54t-4.43-16.12a13.81,13.81,0,0,0-10.94-5.23,14.39,14.39,0,0,0-11.76,5.58q-4.51,5.58-4.51,16.41Q1812.57,931.42,1816.46,937.64Z"/><path class="cls-2" d="M28.05,1003c3,3.08,5.73,6.23,7.31,10-1.08.67-2.57,1.25-3.49,1.83l14.87.08v4.9H15.5l-.08-4.9H30.71c-.42-1.66-2.08-2.91-2.83-4.48-1.49-1.67-2.9-3.66-4.48-5.24Zm-9.14,23.27,24.76-.09v4.9H18.91Zm24.59,11.13v4.9H19.08l-.09-4.82ZM38,1071.17H25.23v6l-4.91-.08v-27.42H43v27.17H38Zm-.08-16.62H25.23l.08,11.63H37.94Zm7.56-16.45,11.88.09c1-4.57,1.83-9.06,2.66-13.71H49.4l-.08-4.9H60.87c.66-2.66,1.08-5.32,1.58-8.15H45.83v-4.9l41.87-.08v5H67.93c-.66,2.66-1.25,5.49-1.66,8.23l17.11-.08c-.58,6.39-1.16,12.21-1.82,18.52h9.55v4.9l-45.61.09Zm38.3,11.3v28.67l-5.07.08V1073l-21.43.08-.09,5.4H52.14V1049.4Zm-26.5,18.7H78.73l-.08-13.8H57.21Zm8.22-43.62c-.41,2.66-1.08,5.15-1.58,7.81-.33,1.91-.75,4.15-1,5.81H76.49l.75-6.48.08-1.41.5-5.65Z"/><path class="cls-2" d="M300.22,1001.63a53.74,53.74,0,0,1,12.3,10.72,32.15,32.15,0,0,0-3.74,2.32h33.4v5.07h-70l.08-5.07h34.9c-2.83-3.07-7.4-7.64-11.05-9.63Zm-19.44,24.84h52.34v5.07H280.78Zm0,12,52.34.08v5H280.78Zm2.33,39.46v-26.5h48V1078h-5.49v-5.31H288.51l.08,5.31Zm42.45-21.43H288.51v11h37.05Z"/><path class="cls-2" d="M551.62,1071.92a6.39,6.39,0,0,1-6.65,4.57h-7.14c-.58-1.75-1.33-3.49-2-5.24,2.74,0,5.82.58,8.64.17a5.31,5.31,0,0,0,2-1.58l-.09-18.53H533.51c-.42,3.66-.5,7.07-1.08,10.47l-.25,1.41a35.91,35.91,0,0,1-6.73,15.46c-1.58-1.08-2.91-2.24-4.32-3.24a34.65,34.65,0,0,0,4.73-9.23,20.75,20.75,0,0,0,1.66-6.06c1.58-11.38.75-23.35.84-35l.08-18.19,23.18-.09Zm-18-60v14.46H546.3v-14.46Zm12.71,19.53-12.71-.09v14.88H546.3Zm17.37,4,27.75-.08a67.27,67.27,0,0,1-2.91,14.38,85.91,85.91,0,0,1-5.57,13.37c3.66,4.57,8.48,7.73,13.21,10.8a38.15,38.15,0,0,1-3.32,4,68.84,68.84,0,0,1-6-4.15c-2.16-1.92-4.66-3.83-6.65-6a101.13,101.13,0,0,1-11.05,11.14c-1.25-1.25-2.33-2.49-3.57-3.82,4.07-3.41,8.3-7,11.13-11.39a64.53,64.53,0,0,1-3.57-6.15,66.87,66.87,0,0,1-5.32-17.11h-4.24l.09,38h-5.32v-71.62l33,.09a97.73,97.73,0,0,1-2.49,17.78c-.66,2.74-3.57,4.65-6.23,4.82a42.12,42.12,0,0,1-9.06-.5l-1.58-5.49c3.08.42,6.24,1.17,9.56,1.33a2.34,2.34,0,0,0,1.83-1.16c.83-2.16,1.74-8.56,1.91-11.72h-21.6Zm9.38,5a36.05,36.05,0,0,0,3,11.13,28.05,28.05,0,0,0,3.32,7,54.21,54.21,0,0,0,6.4-18.11Z"/><path class="cls-2" d="M807.92,1041.26l-5.23-1.25a43.18,43.18,0,0,0,1.24-4.73h-5.15v35.81a6.64,6.64,0,0,1-2.82,6.15c-2.83,2.24-7.23.74-10.81,1.24l-1.82-5.48a65.16,65.16,0,0,0,8.06.25,2.88,2.88,0,0,0,1.91-2.66v-35.31h-1.17c-1.66,11.46-6.39,23.26-15.62,31.15l-4-3.57c9.13-6.56,12.29-17.28,14.37-27.58H775.27v-5.07h19.94a34.83,34.83,0,0,0-3.49-3.49,37.56,37.56,0,0,0-10-5.73l4.07-3.49c2,1,4.15,2.16,6.06,3.24a66.7,66.7,0,0,0,8.81-8.73H778.42V1007h28.17v5c-2.82,5.73-6.48,8.39-10.55,11.8l4.32,4.15-2.58,2.33h12.63a86.38,86.38,0,0,1-1.91,10.8,63,63,0,0,0,14.13-8.14c-2.91-2.74-6.24-9.72-7-12.13a38.58,38.58,0,0,1-6.07,7.06l-4.73-3c7.72-5.65,11.46-14.54,14-22.93l4.82,1.66a42.78,42.78,0,0,1-2.33,6.9h24.76v5.06h-6.73a38.31,38.31,0,0,1-9.39,17.37c5.82,5.15,13.13,7.72,20.36,9.55l-2.83,4.82a59.45,59.45,0,0,1-21.35-10.72,61.75,61.75,0,0,1-19.78,10.64l-3.24-4.24Zm13.46,7c.16-2.41.08-5.15,0-7.65H827a56.18,56.18,0,0,1-.34,7.57H841.9c-.08,3.32-.33,6.56-.66,9.88a86.47,86.47,0,0,1-2.41,13,6.85,6.85,0,0,1-4.74,4.65c-3.49.58-7.14-.08-10.55-.41l-1.41-5.49c4.57.83,10.3,2.58,11.71-.91,1.16-3,2.16-10,2.58-15.71H825.87c-1.33,7.56-4.49,14.88-10.72,20a30.58,30.58,0,0,1-10.55,5.48l-3-4.9c7.8-1.42,15.2-8.06,17.61-15.54.33-1.58,1-3.24,1.24-4.9H808.17v-5.07Zm-1.83-32.74c.75,5.16,3.57,9.89,6.9,14a33.86,33.86,0,0,0,7.56-14Z"/><path class="cls-2" d="M1059.48,1003c-.74,3.16-2,7.48-2.9,10.72h43.78v4.9l-45.86.08a63.09,63.09,0,0,1-3.74,9.31H1090v43.12a5.61,5.61,0,0,1-4,4.65c-3.33.83-7.31.34-10.8.5-.83-1.74-1.66-3.49-2.41-5.23a56.1,56.1,0,0,0,9.8.25,2.1,2.1,0,0,0,2.24-1.75l.09-9.39-33.65-.08v18.11h-5.4v-42.29c-4.07,6.07-10.14,12.13-15.29,17.37-1.66-.75-3.07-2.25-4.74-3.16,10.31-9.06,18.86-19.52,23-31.41l-18.28-.08v-4.9h20.19a116.28,116.28,0,0,0,3.41-11.88Zm-8.3,52.18h33.56v-9.06h-33.56Zm.08-22.27v8.23l33.4.08V1033Z"/><path class="cls-2" d="M1283.3,1006.45h22.76v5.15c-2.16,6.15-4.81,12.71-7.39,18.69,5.4,5.07,9.8,11.72,8.06,19.53-.75,3.32-3.49,6.89-6.81,7.89-2.25,1-5.24.67-7.65.33l-1.24-5.65c2.65.5,6.23,1.67,8.55-.16s2.66-5.24,2.08-8.06c-1.08-5.07-4.4-9.39-8.64-13.05a210.24,210.24,0,0,0,7.56-19.69h-12.13v66.8h-5.23Zm32.65,63.39c4.24-2.08,8.81-3.66,13.13-5.48v5.15c-5.9,2.49-11.63,5.23-17.53,7.73-1.41-1.17-3.08-2.25-4.41-3.41a6.36,6.36,0,0,0,3.66-6.15v-61h35v35.56h-14.46c.42,4.82.58,8.39,3.57,13.71h.34a148.61,148.61,0,0,0,12.63-11l3.82,3.74c-4.49,4.4-9.72,8.14-14.54,11.71a31.27,31.27,0,0,0,15.78,13.13,1,1,0,0,0-.25.5c-1.08,1.24-1.82,2.74-2.9,3.9-8.89-3.49-17.12-12.8-20.52-21.52a52,52,0,0,1-3.16-14.21h-10.22Zm0-48.1,24.59-.09v-10H1316Zm24.51,4.81-24.43.09v10.71h24.43Z"/><path class="cls-2" d="M1558.21,1018.25c-2.58,8.3-8.31,15.7-15,22-.25,0-.41.25-.5.5l-3.82,3.07h-.41l-4-3.82a63.06,63.06,0,0,0,13.54-13,37.27,37.27,0,0,0,5.73-11.55Zm24.93,30.32a59,59,0,0,1,15.2,24.93c-1.75.91-3.49,1.83-5.32,2.57a62.41,62.41,0,0,0-3.49-9.3l-16.7,2.74-16.12,2.32c-3.24.5-6.23,1.34-9.38,1.92-1.25-1.92-2.66-3.74-3.74-5.65a57.76,57.76,0,0,0,12.46-15.21,65.86,65.86,0,0,0,8.06-22.18c1.83.5,3.41,1.49,5.23,2a58.39,58.39,0,0,1-4.15,14,65.31,65.31,0,0,1-14.12,20.77l2.16-.17,16.28-2.32c6-.83,11.8-2,17.7-2.83a53.75,53.75,0,0,0-9.14-11.21Zm-25.93-41h26.42c3.16,12.38,8.81,25.26,20.69,32.4l-3.74,4a23.36,23.36,0,0,1-7.47-5.81c-6.9-7.48-11-16.12-13.88-25.43h-22.1Z"/><path class="cls-2" d="M1842.51,1026.64h-53.84v-5.24l53.84.09Zm11.3,44.78a7.26,7.26,0,0,1-3.66,6.07c-2.82.91-6.06.58-9.22.58h-3.07l-2-5.74a81.8,81.8,0,0,0,10.14.25,2.68,2.68,0,0,0,2.08-2v-59l-55.25-.08v-5.16l60.9.09Zm-25.92-4.82v-6l-24.18.08v6.15h-5.48v-30.66h35.22l-.08,30.41Zm-.17-25.26h-24l-.08,14.21,24.09-.08Z"/><path class="cls-1" d="M1821.87,637.84v12.41h-15.33V637.84h-69.23v12.41H1721.8V637.84h-34.71V625.23h34.71v-12.6h15.51v12.6h69.23v-12.6h15.33v12.6h34.71v12.61Zm6.2,62v19.39H1851v12.61h-71.36v15.9h70.2V760.2h-70.2v20.95h-15.32V760.2h-68.46V747.79h68.46v-15.9h-72.14V719.28H1715V699.89h-27.92v-12.6H1715v-19h-23.07V655.87h159.21v12.41h-23.08v19H1857v12.6Zm-63.8-31.61h-33.74v19h33.74Zm0,31.61h-33.74v19.39h33.74Zm49.06-31.61h-33.74v19h33.74Zm0,31.61h-33.74v19.39h33.74Z"/><path class="cls-1" d="M1551.09,709.4c-4.26,4.84-10.28,8.14-15.51,8.14h-41.5V766h38.2c4.66,0,7.18-1.55,8.53-3.68,1.56-2.52,1.36-6,.39-8.54L1531.7,727h15.71l9.5,31a15.8,15.8,0,0,1-2.13,13.58c-3.11,4.65-8.73,8.33-17.65,8.33H1479V627.75h30.84v-15.7h15.32v15.7h32v66.91C1557.1,699.89,1554.58,705.13,1551.09,709.4ZM1542,641.33h-47.9v24H1542Zm0,37.81h-47.9v24.63h39.56c4.27,0,8.34-4.85,8.34-8.73Zm96.57,93.28c-3.68,4.46-8.92,7.56-13.77,7.56h-25.4V766h20c3.88,0,9.31-5.62,9.31-10.47v-32h-41.89v39a18.73,18.73,0,0,1-4.46,11.64c-2.9,3.49-6.59,5.81-9.89,5.81H1560V766h5.24c3.3,0,6.59-3.68,6.59-7.76V614.76h72V759.23A20.83,20.83,0,0,1,1638.55,772.42Zm-9.89-144.09h-41.89v33.94h41.89Zm0,47.71h-41.89V710h41.89Z"/><path class="cls-1" d="M664.64,357.78a172.1,172.1,0,0,1,30.58,2.28c24.2,4.1,29.68,4.56,47.47,4.56,14.61,0,19.18,0,41.54-1.82-.45,3.65-1.37,7.76-1.37,11.41,0,4.11.92,7.76,1.37,11.86-11.87-.91-29.21-.91-42-.91,11,9.59,19.16,24.19,19.16,43.82,0,48.39-39.7,74.86-91.74,74.86-5,0-31-1.83-31.95-1.83-13.23,0-20.09,11-20.09,21.91,0,12.33,3.2,24.2,53.41,24.2,5,0,27.84-.46,32.41-.46,38.8.92,52.49,9.13,62.08,17.8,11.41,10,18.26,25.11,18.26,42.91,0,32.87-24.2,98.14-120.51,98.14-73.49,0-96.77-37.88-96.77-68,0-42,40.62-56.14,50.21-59.79-29.66-8.21-33.77-25.56-33.77-37.89,0-30.58,29.21-42.9,37-44.73-31.5-11.87-44.28-36.06-44.28-63.9C575.63,383.8,615.8,357.78,664.64,357.78Zm81.25,272.5c0-42.45-45.19-49.29-73.95-49.29-11,0-71.21,0-71.21,52.48,0,33.78,29.21,54.32,72.13,54.32C720.32,687.79,745.89,660.86,745.89,630.28ZM718.05,428.07c0-39.71-25.56-54.77-49.31-54.77-45.64,0-49.74,42.91-49.74,60.25,0,38.34,21.45,54.77,47.48,54.77C708,488.32,718.05,453.17,718.05,428.07Z"/><path class="cls-1" d="M1047.42,242.78s49.84-130.11,260.19-135.87c241.55-6.6,368,71.71,464.22,158.52,12.27-5.66,15.11-7.55,15.11-7.55S1590.67,22,1223.64,22,795.26,242.78,795.26,242.78Z"/><path class="cls-3" d="M803.75,611.54s-7.81,142.73-288.23,142.73c-246.64,0-378.94-71.1-479-158.8H12.28a3,3,0,0,0-.32.2S218.15,843.5,603.75,843.5s450-232,450-232Z"/></svg>